<svg xmlns="http://www.w3.org/2000/svg" viewBox="0 0 1440 1080">
    <defs><pattern id="grid" width="72" height="72" patternUnits="userSpaceOnUse"><path d="M72 0H0V72" fill="none" stroke="#ffffff" stroke-opacity=".06"/></pattern></defs>
    <rect width="1440" height="1080" fill="#151515"/><rect width="1440" height="1080" fill="url(#grid)"/>
    <g font-family="Arial,Helvetica,sans-serif" fill="#f5f2ed"><text x="80" y="92" font-size="22" letter-spacing="5">ADVVVVAITH / SELECTED WORK</text>
    <text x="80" y="225" font-size="86" letter-spacing="-5">artificial hedge</text><text x="83" y="285" font-size="24" fill="#a6a6a0">RESEARCH / MARKETS / COMPANY BUILDING</text><rect x="80" y="370" width="1280" height="540" rx="18" fill="#232323"/><path d="M175 520L355 611" stroke="#f84b30" stroke-width="5"/><path d="M355 611L535 702" stroke="#f84b30" stroke-width="5"/><path d="M535 702L715 603" stroke="#f84b30" stroke-width="5"/><path d="M715 603L895 694" stroke="#f84b30" stroke-width="5"/><path d="M895 694L1075 595" stroke="#f84b30" stroke-width="5"/><path d="M1075 595L1255 686" stroke="#f84b30" stroke-width="5"/><circle cx="175" cy="520" r="12" fill="#f84b30"/><circle cx="355" cy="611" r="12" fill="#f84b30"/><circle cx="535" cy="702" r="12" fill="#f84b30"/><circle cx="715" cy="603" r="12" fill="#f84b30"/><circle cx="895" cy="694" r="12" fill="#f84b30"/><circle cx="1075" cy="595" r="12" fill="#f84b30"/><circle cx="1255" cy="686" r="12" fill="#f84b30"/><text x="120" y="430" font-size="20" fill="#aaa">FROM RESEARCH TO DECISIONS</text><g font-size="20" fill="#ddd"><text x="120" y="845">DATA</text><text x="480" y="845">RESEARCH</text><text x="840" y="845">RISK</text><text x="1190" y="845">CAPITAL</text></g>
    <path d="M80 975H1360" stroke="#ffffff" stroke-opacity=".2"/><text x="80" y="1025" font-size="20" fill="#a6a6a0">EXPERIMENTS BECOME SYSTEMS.</text>
    <circle cx="1330" cy="1017" r="13" fill="#f84b30"/></g></svg>